<mxfile host="app.diagrams.net" modified="2025-04-06T10:42:09.425Z" agent="Mozilla/5.0 (Macintosh; Intel Mac OS X 10_15_7) AppleWebKit/537.36 (KHTML, like Gecko) Chrome/131.0.0.0 Safari/537.36" version="24.1.0" etag="SM7L3foDtus2WpvX8SZY" type="github">
  <diagram name="Page-1" id="_mN7HZWvsNOyCeCNafLh">
    <mxGraphModel>
      <root>
        <mxCell id="0" />
        <mxCell id="1" parent="0" />
      </root>
    </mxGraphModel>
  </diagram>
</mxfile>
